<mxfile host="app.diagrams.net" agent="Mozilla/5.0 (X11; Linux x86_64; rv:131.0) Gecko/20100101 Firefox/131.0" version="24.8.0">
  <diagram name="Page-1" id="qPB1J2QfBsX45vZSyjPc">
    <mxGraphModel dx="1346" dy="663" grid="1" gridSize="10" guides="1" tooltips="1" connect="1" arrows="1" fold="1" page="1" pageScale="1" pageWidth="1600" pageHeight="1200" math="0" shadow="0">
      <root>
        <mxCell id="0" />
        <mxCell id="1" parent="0" />
        <mxCell id="6hf2DGCrWJqTCBCjmLNf-26" value="" style="whiteSpace=wrap;html=1;fillColor=#d0cee2;strokeColor=#56517e;" vertex="1" parent="1">
          <mxGeometry x="1100" width="500" height="1200" as="geometry" />
        </mxCell>
        <mxCell id="6hf2DGCrWJqTCBCjmLNf-24" value="" style="whiteSpace=wrap;html=1;fillColor=#b1ddf0;strokeColor=#10739e;" vertex="1" parent="1">
          <mxGeometry x="490" width="610" height="1200" as="geometry" />
        </mxCell>
        <mxCell id="6hf2DGCrWJqTCBCjmLNf-18" value="" style="rounded=0;whiteSpace=wrap;html=1;" vertex="1" parent="1">
          <mxGeometry y="340" width="400" height="700" as="geometry" />
        </mxCell>
        <mxCell id="6hf2DGCrWJqTCBCjmLNf-19" value="&lt;font style=&quot;font-size: 28px;&quot;&gt;Web Assembly Application&lt;br&gt;&lt;/font&gt;" style="text;html=1;align=center;verticalAlign=middle;resizable=0;points=[];autosize=1;strokeColor=none;fillColor=none;" vertex="1" parent="1">
          <mxGeometry x="25" y="290" width="350" height="50" as="geometry" />
        </mxCell>
        <mxCell id="6hf2DGCrWJqTCBCjmLNf-20" value="" style="rounded=0;whiteSpace=wrap;html=1;" vertex="1" parent="1">
          <mxGeometry x="600" y="340" width="400" height="700" as="geometry" />
        </mxCell>
        <mxCell id="6hf2DGCrWJqTCBCjmLNf-21" value="" style="rounded=0;whiteSpace=wrap;html=1;" vertex="1" parent="1">
          <mxGeometry x="1200" y="340" width="400" height="700" as="geometry" />
        </mxCell>
        <mxCell id="6hf2DGCrWJqTCBCjmLNf-22" value="&lt;font style=&quot;font-size: 28px;&quot;&gt;Custom API Server&lt;br&gt;&lt;/font&gt;" style="text;html=1;align=center;verticalAlign=middle;resizable=0;points=[];autosize=1;strokeColor=none;fillColor=none;" vertex="1" parent="1">
          <mxGeometry x="670" y="290" width="260" height="50" as="geometry" />
        </mxCell>
        <mxCell id="6hf2DGCrWJqTCBCjmLNf-23" value="&lt;font style=&quot;font-size: 28px;&quot;&gt;ARM Cortex-M4 Firmware&lt;br&gt;&lt;/font&gt;" style="text;html=1;align=center;verticalAlign=middle;resizable=0;points=[];autosize=1;strokeColor=none;fillColor=none;" vertex="1" parent="1">
          <mxGeometry x="1225" y="290" width="350" height="50" as="geometry" />
        </mxCell>
        <mxCell id="6hf2DGCrWJqTCBCjmLNf-25" value="&lt;font style=&quot;font-size: 28px;&quot;&gt;Embedded Linux on ARM Cortex-A7&lt;br&gt;&lt;/font&gt;" style="text;html=1;align=center;verticalAlign=middle;resizable=0;points=[];autosize=1;strokeColor=none;fillColor=none;" vertex="1" parent="1">
          <mxGeometry x="560" y="110" width="480" height="50" as="geometry" />
        </mxCell>
        <mxCell id="6hf2DGCrWJqTCBCjmLNf-27" value="&lt;font style=&quot;font-size: 28px;&quot;&gt;ARM Cortex-M4 Microcontroller&lt;br&gt;&lt;/font&gt;" style="text;html=1;align=center;verticalAlign=middle;resizable=0;points=[];autosize=1;strokeColor=none;fillColor=none;" vertex="1" parent="1">
          <mxGeometry x="1155" y="110" width="410" height="50" as="geometry" />
        </mxCell>
        <mxCell id="6hf2DGCrWJqTCBCjmLNf-28" value="&lt;font style=&quot;font-size: 28px;&quot;&gt;User&#39;s Browser &lt;/font&gt;" style="text;html=1;align=center;verticalAlign=middle;resizable=0;points=[];autosize=1;strokeColor=none;fillColor=none;" vertex="1" parent="1">
          <mxGeometry x="95" y="100" width="210" height="50" as="geometry" />
        </mxCell>
        <mxCell id="6hf2DGCrWJqTCBCjmLNf-29" value="" style="whiteSpace=wrap;html=1;" vertex="1" parent="1">
          <mxGeometry x="40" y="370" width="310" height="110" as="geometry" />
        </mxCell>
      </root>
    </mxGraphModel>
  </diagram>
</mxfile>
